<svg width="24" height="23" viewBox="0 0 24 23" fill="none" xmlns="http://www.w3.org/2000/svg">
<path d="M20.1139 8.625H11.4889C10.4304 8.625 9.57227 9.48312 9.57227 10.5417V19.1667C9.57227 20.2252 10.4304 21.0833 11.4889 21.0833H20.1139C21.1725 21.0833 22.0306 20.2252 22.0306 19.1667V10.5417C22.0306 9.48312 21.1725 8.625 20.1139 8.625Z" stroke="white" stroke-width="1.5" stroke-linecap="round" stroke-linejoin="round"/>
<path d="M5.73889 14.375H4.78056C4.27223 14.375 3.78471 14.1731 3.42527 13.8136C3.06583 13.4542 2.86389 12.9667 2.86389 12.4583V3.83334C2.86389 3.32501 3.06583 2.8375 3.42527 2.47805C3.78471 2.11861 4.27223 1.91667 4.78056 1.91667H13.4056C13.9139 1.91667 14.4014 2.11861 14.7608 2.47805C15.1203 2.8375 15.3222 3.32501 15.3222 3.83334V4.79167" stroke="white" stroke-width="1.5" stroke-linecap="round" stroke-linejoin="round"/>
</svg>
