<svg width="40" height="40" viewBox="0 0 40 40" fill="none" xmlns="http://www.w3.org/2000/svg">
<circle cx="20" cy="20" r="20" fill="#282629"/>
<rect x="10" y="10" width="19" height="19" rx="6" fill="#D9D9D9"/>
<path d="M16.3796 14.6746C16.1999 14.4649 15.8843 14.4407 15.6746 14.6204C15.4649 14.8001 15.4407 15.1157 15.6204 15.3254L16.3796 14.6746ZM21.9617 22.4985C22.237 22.5197 22.4773 22.3137 22.4985 22.0383L22.8437 17.5516C22.8648 17.2763 22.6588 17.0359 22.3835 17.0147C22.1082 16.9935 21.8678 17.1996 21.8466 17.4749L21.5398 21.4631L17.5516 21.1563C17.2763 21.1352 17.0359 21.3412 17.0147 21.6165C16.9935 21.8918 17.1996 22.1322 17.4749 22.1534L21.9617 22.4985ZM15.6204 15.3254L21.6204 22.3254L22.3796 21.6746L16.3796 14.6746L15.6204 15.3254Z" fill="black"/>
<path d="M13 24C16 25 25 25 27 24" stroke="black" stroke-linecap="round"/>
</svg>
