<svg width="40" height="40" viewBox="0 0 40 40" fill="none" xmlns="http://www.w3.org/2000/svg">
<circle cx="20" cy="20" r="20" fill="#282629"/>
<rect x="10" y="10" width="19" height="19" rx="6" fill="#D9D9D9"/>
<path d="M22.8834 15.3891C22.8942 15.1132 22.6792 14.8808 22.4032 14.87L17.9067 14.6949C17.6307 14.6841 17.3983 14.8991 17.3876 15.175C17.3768 15.451 17.5918 15.6834 17.8677 15.6941L21.8647 15.8498L21.709 19.8468C21.6983 20.1227 21.9133 20.3551 22.1892 20.3658C22.4651 20.3766 22.6975 20.1616 22.7083 19.8857L22.8834 15.3891ZM15.2763 21.2631C15.0736 21.4506 15.0612 21.767 15.2488 21.9697C15.4363 22.1724 15.7526 22.1847 15.9553 21.9972L15.2763 21.2631ZM22.0443 15.0026L15.2763 21.2631L15.9553 21.9972L22.7233 15.7367L22.0443 15.0026Z" fill="black"/>
<path d="M13 24C16 25 25 25 27 24" stroke="black" stroke-linecap="round"/>
</svg>
